<?xml version="1.0" encoding="UTF-8" standalone="no"?>
<!DOCTYPE svg PUBLIC "-//W3C//DTD SVG 1.1//EN"
 "http://www.w3.org/Graphics/SVG/1.1/DTD/svg11.dtd">
<!-- Generated by graphviz version 2.38.0 (20140413.2041)
 -->
<!-- Title: Tree Pages: 1 -->
<svg width="1028pt" height="552pt"
 viewBox="0.00 0.00 1028.00 552.00" xmlns="http://www.w3.org/2000/svg" xmlns:xlink="http://www.w3.org/1999/xlink">
<g id="graph0" class="graph" transform="scale(1 1) rotate(0) translate(4 548)">
<title>Tree</title>
<polygon fill="white" stroke="none" points="-4,4 -4,-548 1024,-548 1024,4 -4,4"/>
<!-- 0 -->
<g id="node1" class="node"><title>0</title>
<path fill="#ecfdf3" stroke="black" d="M672,-544C672,-544 559,-544 559,-544 553,-544 547,-538 547,-532 547,-532 547,-473 547,-473 547,-467 553,-461 559,-461 559,-461 672,-461 672,-461 678,-461 684,-467 684,-473 684,-473 684,-532 684,-532 684,-538 678,-544 672,-544"/>
<text text-anchor="middle" x="615.5" y="-528.8" font-family="Helvetica,sans-Serif" font-size="14.00">proline &lt;= 760.0</text>
<text text-anchor="middle" x="615.5" y="-513.8" font-family="Helvetica,sans-Serif" font-size="14.00">entropy = 1.575</text>
<text text-anchor="middle" x="615.5" y="-498.8" font-family="Helvetica,sans-Serif" font-size="14.00">samples = 124</text>
<text text-anchor="middle" x="615.5" y="-483.8" font-family="Helvetica,sans-Serif" font-size="14.00">value = [40, 48, 36]</text>
<text text-anchor="middle" x="615.5" y="-468.8" font-family="Helvetica,sans-Serif" font-size="14.00">class = 雪碧</text>
</g>
<!-- 1 -->
<g id="node2" class="node"><title>1</title>
<path fill="#bef7d6" stroke="black" d="M626,-425C626,-425 371,-425 371,-425 365,-425 359,-419 359,-413 359,-413 359,-354 359,-354 359,-348 365,-342 371,-342 371,-342 626,-342 626,-342 632,-342 638,-348 638,-354 638,-354 638,-413 638,-413 638,-419 632,-425 626,-425"/>
<text text-anchor="middle" x="498.5" y="-409.8" font-family="Helvetica,sans-Serif" font-size="14.00">od280/od315_of_diluted_wines &lt;= 2.115</text>
<text text-anchor="middle" x="498.5" y="-394.8" font-family="Helvetica,sans-Serif" font-size="14.00">entropy = 0.972</text>
<text text-anchor="middle" x="498.5" y="-379.8" font-family="Helvetica,sans-Serif" font-size="14.00">samples = 77</text>
<text text-anchor="middle" x="498.5" y="-364.8" font-family="Helvetica,sans-Serif" font-size="14.00">value = [0, 46, 31]</text>
<text text-anchor="middle" x="498.5" y="-349.8" font-family="Helvetica,sans-Serif" font-size="14.00">class = 雪碧</text>
</g>
<!-- 0&#45;&gt;1 -->
<g id="edge1" class="edge"><title>0&#45;&gt;1</title>
<path fill="none" stroke="black" d="M574.907,-460.907C565.651,-451.651 555.732,-441.732 546.209,-432.209"/>
<polygon fill="black" stroke="black" points="548.567,-429.617 539.021,-425.021 543.617,-434.567 548.567,-429.617"/>
<text text-anchor="middle" x="539.021" y="-446.321" font-family="Helvetica,sans-Serif" font-size="14.00">True</text>
</g>
<!-- 12 -->
<g id="node13" class="node"><title>12</title>
<path fill="#e9965a" stroke="black" d="M798.5,-425C798.5,-425 668.5,-425 668.5,-425 662.5,-425 656.5,-419 656.5,-413 656.5,-413 656.5,-354 656.5,-354 656.5,-348 662.5,-342 668.5,-342 668.5,-342 798.5,-342 798.5,-342 804.5,-342 810.5,-348 810.5,-354 810.5,-354 810.5,-413 810.5,-413 810.5,-419 804.5,-425 798.5,-425"/>
<text text-anchor="middle" x="733.5" y="-409.8" font-family="Helvetica,sans-Serif" font-size="14.00">total_phenols &lt;= 2.15</text>
<text text-anchor="middle" x="733.5" y="-394.8" font-family="Helvetica,sans-Serif" font-size="14.00">entropy = 0.736</text>
<text text-anchor="middle" x="733.5" y="-379.8" font-family="Helvetica,sans-Serif" font-size="14.00">samples = 47</text>
<text text-anchor="middle" x="733.5" y="-364.8" font-family="Helvetica,sans-Serif" font-size="14.00">value = [40, 2, 5]</text>
<text text-anchor="middle" x="733.5" y="-349.8" font-family="Helvetica,sans-Serif" font-size="14.00">class = 可乐</text>
</g>
<!-- 0&#45;&gt;12 -->
<g id="edge12" class="edge"><title>0&#45;&gt;12</title>
<path fill="none" stroke="black" d="M656.44,-460.907C665.775,-451.651 675.779,-441.732 685.383,-432.209"/>
<polygon fill="black" stroke="black" points="687.996,-434.547 692.633,-425.021 683.067,-429.576 687.996,-434.547"/>
<text text-anchor="middle" x="692.526" y="-446.321" font-family="Helvetica,sans-Serif" font-size="14.00">False</text>
</g>
<!-- 2 -->
<g id="node3" class="node"><title>2</title>
<path fill="#965ae9" stroke="black" d="M401,-306C401,-306 304,-306 304,-306 298,-306 292,-300 292,-294 292,-294 292,-235 292,-235 292,-229 298,-223 304,-223 304,-223 401,-223 401,-223 407,-223 413,-229 413,-235 413,-235 413,-294 413,-294 413,-300 407,-306 401,-306"/>
<text text-anchor="middle" x="352.5" y="-290.8" font-family="Helvetica,sans-Serif" font-size="14.00">hue &lt;= 0.935</text>
<text text-anchor="middle" x="352.5" y="-275.8" font-family="Helvetica,sans-Serif" font-size="14.00">entropy = 0.592</text>
<text text-anchor="middle" x="352.5" y="-260.8" font-family="Helvetica,sans-Serif" font-size="14.00">samples = 35</text>
<text text-anchor="middle" x="352.5" y="-245.8" font-family="Helvetica,sans-Serif" font-size="14.00">value = [0, 5, 30]</text>
<text text-anchor="middle" x="352.5" y="-230.8" font-family="Helvetica,sans-Serif" font-size="14.00">class = 橙汁</text>
</g>
<!-- 1&#45;&gt;2 -->
<g id="edge2" class="edge"><title>1&#45;&gt;2</title>
<path fill="none" stroke="black" d="M447.846,-341.907C435.955,-332.379 423.189,-322.148 410.987,-312.37"/>
<polygon fill="black" stroke="black" points="413.057,-309.543 403.064,-306.021 408.679,-315.006 413.057,-309.543"/>
</g>
<!-- 9 -->
<g id="node10" class="node"><title>9</title>
<path fill="#3ee684" stroke="black" d="M591.5,-306C591.5,-306 443.5,-306 443.5,-306 437.5,-306 431.5,-300 431.5,-294 431.5,-294 431.5,-235 431.5,-235 431.5,-229 437.5,-223 443.5,-223 443.5,-223 591.5,-223 591.5,-223 597.5,-223 603.5,-229 603.5,-235 603.5,-235 603.5,-294 603.5,-294 603.5,-300 597.5,-306 591.5,-306"/>
<text text-anchor="middle" x="517.5" y="-290.8" font-family="Helvetica,sans-Serif" font-size="14.00">proanthocyanins &lt;= 0.79</text>
<text text-anchor="middle" x="517.5" y="-275.8" font-family="Helvetica,sans-Serif" font-size="14.00">entropy = 0.162</text>
<text text-anchor="middle" x="517.5" y="-260.8" font-family="Helvetica,sans-Serif" font-size="14.00">samples = 42</text>
<text text-anchor="middle" x="517.5" y="-245.8" font-family="Helvetica,sans-Serif" font-size="14.00">value = [0, 41, 1]</text>
<text text-anchor="middle" x="517.5" y="-230.8" font-family="Helvetica,sans-Serif" font-size="14.00">class = 雪碧</text>
</g>
<!-- 1&#45;&gt;9 -->
<g id="edge9" class="edge"><title>1&#45;&gt;9</title>
<path fill="none" stroke="black" d="M505.092,-341.907C506.448,-333.558 507.891,-324.671 509.296,-316.02"/>
<polygon fill="black" stroke="black" points="512.771,-316.453 510.92,-306.021 505.862,-315.33 512.771,-316.453"/>
</g>
<!-- 3 -->
<g id="node4" class="node"><title>3</title>
<path fill="#8540e6" stroke="black" d="M240,-187C240,-187 131,-187 131,-187 125,-187 119,-181 119,-175 119,-175 119,-116 119,-116 119,-110 125,-104 131,-104 131,-104 240,-104 240,-104 246,-104 252,-110 252,-116 252,-116 252,-175 252,-175 252,-181 246,-187 240,-187"/>
<text text-anchor="middle" x="185.5" y="-171.8" font-family="Helvetica,sans-Serif" font-size="14.00">flavanoids &lt;= 1.58</text>
<text text-anchor="middle" x="185.5" y="-156.8" font-family="Helvetica,sans-Serif" font-size="14.00">entropy = 0.211</text>
<text text-anchor="middle" x="185.5" y="-141.8" font-family="Helvetica,sans-Serif" font-size="14.00">samples = 30</text>
<text text-anchor="middle" x="185.5" y="-126.8" font-family="Helvetica,sans-Serif" font-size="14.00">value = [0, 1, 29]</text>
<text text-anchor="middle" x="185.5" y="-111.8" font-family="Helvetica,sans-Serif" font-size="14.00">class = 橙汁</text>
</g>
<!-- 2&#45;&gt;3 -->
<g id="edge3" class="edge"><title>2&#45;&gt;3</title>
<path fill="none" stroke="black" d="M294.56,-222.907C280.7,-213.197 265.8,-202.758 251.602,-192.811"/>
<polygon fill="black" stroke="black" points="253.536,-189.892 243.337,-187.021 249.519,-195.625 253.536,-189.892"/>
</g>
<!-- 6 -->
<g id="node7" class="node"><title>6</title>
<path fill="#6aeca0" stroke="black" d="M426.5,-187C426.5,-187 282.5,-187 282.5,-187 276.5,-187 270.5,-181 270.5,-175 270.5,-175 270.5,-116 270.5,-116 270.5,-110 276.5,-104 282.5,-104 282.5,-104 426.5,-104 426.5,-104 432.5,-104 438.5,-110 438.5,-116 438.5,-116 438.5,-175 438.5,-175 438.5,-181 432.5,-187 426.5,-187"/>
<text text-anchor="middle" x="354.5" y="-171.8" font-family="Helvetica,sans-Serif" font-size="14.00">color_intensity &lt;= 5.815</text>
<text text-anchor="middle" x="354.5" y="-156.8" font-family="Helvetica,sans-Serif" font-size="14.00">entropy = 0.722</text>
<text text-anchor="middle" x="354.5" y="-141.8" font-family="Helvetica,sans-Serif" font-size="14.00">samples = 5</text>
<text text-anchor="middle" x="354.5" y="-126.8" font-family="Helvetica,sans-Serif" font-size="14.00">value = [0, 4, 1]</text>
<text text-anchor="middle" x="354.5" y="-111.8" font-family="Helvetica,sans-Serif" font-size="14.00">class = 雪碧</text>
</g>
<!-- 2&#45;&gt;6 -->
<g id="edge6" class="edge"><title>2&#45;&gt;6</title>
<path fill="none" stroke="black" d="M353.194,-222.907C353.337,-214.558 353.489,-205.671 353.636,-197.02"/>
<polygon fill="black" stroke="black" points="357.136,-197.079 353.807,-187.021 350.137,-196.959 357.136,-197.079"/>
</g>
<!-- 4 -->
<g id="node5" class="node"><title>4</title>
<path fill="#8139e5" stroke="black" d="M109,-68C109,-68 12,-68 12,-68 6,-68 0,-62 0,-56 0,-56 0,-12 0,-12 0,-6 6,-0 12,-0 12,-0 109,-0 109,-0 115,-0 121,-6 121,-12 121,-12 121,-56 121,-56 121,-62 115,-68 109,-68"/>
<text text-anchor="middle" x="60.5" y="-52.8" font-family="Helvetica,sans-Serif" font-size="14.00">entropy = 0.0</text>
<text text-anchor="middle" x="60.5" y="-37.8" font-family="Helvetica,sans-Serif" font-size="14.00">samples = 29</text>
<text text-anchor="middle" x="60.5" y="-22.8" font-family="Helvetica,sans-Serif" font-size="14.00">value = [0, 0, 29]</text>
<text text-anchor="middle" x="60.5" y="-7.8" font-family="Helvetica,sans-Serif" font-size="14.00">class = 橙汁</text>
</g>
<!-- 3&#45;&gt;4 -->
<g id="edge4" class="edge"><title>3&#45;&gt;4</title>
<path fill="none" stroke="black" d="M138.955,-103.726C128.23,-94.3318 116.834,-84.349 106.149,-74.9883"/>
<polygon fill="black" stroke="black" points="108.342,-72.2562 98.5132,-68.2996 103.729,-77.5217 108.342,-72.2562"/>
</g>
<!-- 5 -->
<g id="node6" class="node"><title>5</title>
<path fill="#39e581" stroke="black" d="M240,-68C240,-68 151,-68 151,-68 145,-68 139,-62 139,-56 139,-56 139,-12 139,-12 139,-6 145,-0 151,-0 151,-0 240,-0 240,-0 246,-0 252,-6 252,-12 252,-12 252,-56 252,-56 252,-62 246,-68 240,-68"/>
<text text-anchor="middle" x="195.5" y="-52.8" font-family="Helvetica,sans-Serif" font-size="14.00">entropy = 0.0</text>
<text text-anchor="middle" x="195.5" y="-37.8" font-family="Helvetica,sans-Serif" font-size="14.00">samples = 1</text>
<text text-anchor="middle" x="195.5" y="-22.8" font-family="Helvetica,sans-Serif" font-size="14.00">value = [0, 1, 0]</text>
<text text-anchor="middle" x="195.5" y="-7.8" font-family="Helvetica,sans-Serif" font-size="14.00">class = 雪碧</text>
</g>
<!-- 3&#45;&gt;5 -->
<g id="edge5" class="edge"><title>3&#45;&gt;5</title>
<path fill="none" stroke="black" d="M189.224,-103.726C189.982,-95.4263 190.782,-86.6671 191.547,-78.2834"/>
<polygon fill="black" stroke="black" points="195.035,-78.5765 192.459,-68.2996 188.064,-77.9398 195.035,-78.5765"/>
</g>
<!-- 7 -->
<g id="node8" class="node"><title>7</title>
<path fill="#39e581" stroke="black" d="M380,-68C380,-68 291,-68 291,-68 285,-68 279,-62 279,-56 279,-56 279,-12 279,-12 279,-6 285,-0 291,-0 291,-0 380,-0 380,-0 386,-0 392,-6 392,-12 392,-12 392,-56 392,-56 392,-62 386,-68 380,-68"/>
<text text-anchor="middle" x="335.5" y="-52.8" font-family="Helvetica,sans-Serif" font-size="14.00">entropy = 0.0</text>
<text text-anchor="middle" x="335.5" y="-37.8" font-family="Helvetica,sans-Serif" font-size="14.00">samples = 4</text>
<text text-anchor="middle" x="335.5" y="-22.8" font-family="Helvetica,sans-Serif" font-size="14.00">value = [0, 4, 0]</text>
<text text-anchor="middle" x="335.5" y="-7.8" font-family="Helvetica,sans-Serif" font-size="14.00">class = 雪碧</text>
</g>
<!-- 6&#45;&gt;7 -->
<g id="edge7" class="edge"><title>6&#45;&gt;7</title>
<path fill="none" stroke="black" d="M347.425,-103.726C345.985,-95.4263 344.465,-86.6671 343.01,-78.2834"/>
<polygon fill="black" stroke="black" points="346.436,-77.554 341.278,-68.2996 339.539,-78.7508 346.436,-77.554"/>
</g>
<!-- 8 -->
<g id="node9" class="node"><title>8</title>
<path fill="#8139e5" stroke="black" d="M511,-68C511,-68 422,-68 422,-68 416,-68 410,-62 410,-56 410,-56 410,-12 410,-12 410,-6 416,-0 422,-0 422,-0 511,-0 511,-0 517,-0 523,-6 523,-12 523,-12 523,-56 523,-56 523,-62 517,-68 511,-68"/>
<text text-anchor="middle" x="466.5" y="-52.8" font-family="Helvetica,sans-Serif" font-size="14.00">entropy = 0.0</text>
<text text-anchor="middle" x="466.5" y="-37.8" font-family="Helvetica,sans-Serif" font-size="14.00">samples = 1</text>
<text text-anchor="middle" x="466.5" y="-22.8" font-family="Helvetica,sans-Serif" font-size="14.00">value = [0, 0, 1]</text>
<text text-anchor="middle" x="466.5" y="-7.8" font-family="Helvetica,sans-Serif" font-size="14.00">class = 橙汁</text>
</g>
<!-- 6&#45;&gt;8 -->
<g id="edge8" class="edge"><title>6&#45;&gt;8</title>
<path fill="none" stroke="black" d="M396.205,-103.726C405.627,-94.5142 415.628,-84.7364 425.04,-75.5343"/>
<polygon fill="black" stroke="black" points="427.736,-77.7931 432.44,-68.2996 422.843,-72.7878 427.736,-77.7931"/>
</g>
<!-- 10 -->
<g id="node11" class="node"><title>10</title>
<path fill="#8139e5" stroke="black" d="M561,-179.5C561,-179.5 472,-179.5 472,-179.5 466,-179.5 460,-173.5 460,-167.5 460,-167.5 460,-123.5 460,-123.5 460,-117.5 466,-111.5 472,-111.5 472,-111.5 561,-111.5 561,-111.5 567,-111.5 573,-117.5 573,-123.5 573,-123.5 573,-167.5 573,-167.5 573,-173.5 567,-179.5 561,-179.5"/>
<text text-anchor="middle" x="516.5" y="-164.3" font-family="Helvetica,sans-Serif" font-size="14.00">entropy = 0.0</text>
<text text-anchor="middle" x="516.5" y="-149.3" font-family="Helvetica,sans-Serif" font-size="14.00">samples = 1</text>
<text text-anchor="middle" x="516.5" y="-134.3" font-family="Helvetica,sans-Serif" font-size="14.00">value = [0, 0, 1]</text>
<text text-anchor="middle" x="516.5" y="-119.3" font-family="Helvetica,sans-Serif" font-size="14.00">class = 橙汁</text>
</g>
<!-- 9&#45;&gt;10 -->
<g id="edge10" class="edge"><title>9&#45;&gt;10</title>
<path fill="none" stroke="black" d="M517.153,-222.907C517.062,-212.204 516.963,-200.615 516.87,-189.776"/>
<polygon fill="black" stroke="black" points="520.369,-189.637 516.783,-179.667 513.369,-189.697 520.369,-189.637"/>
</g>
<!-- 11 -->
<g id="node12" class="node"><title>11</title>
<path fill="#39e581" stroke="black" d="M700,-179.5C700,-179.5 603,-179.5 603,-179.5 597,-179.5 591,-173.5 591,-167.5 591,-167.5 591,-123.5 591,-123.5 591,-117.5 597,-111.5 603,-111.5 603,-111.5 700,-111.5 700,-111.5 706,-111.5 712,-117.5 712,-123.5 712,-123.5 712,-167.5 712,-167.5 712,-173.5 706,-179.5 700,-179.5"/>
<text text-anchor="middle" x="651.5" y="-164.3" font-family="Helvetica,sans-Serif" font-size="14.00">entropy = 0.0</text>
<text text-anchor="middle" x="651.5" y="-149.3" font-family="Helvetica,sans-Serif" font-size="14.00">samples = 41</text>
<text text-anchor="middle" x="651.5" y="-134.3" font-family="Helvetica,sans-Serif" font-size="14.00">value = [0, 41, 0]</text>
<text text-anchor="middle" x="651.5" y="-119.3" font-family="Helvetica,sans-Serif" font-size="14.00">class = 雪碧</text>
</g>
<!-- 9&#45;&gt;11 -->
<g id="edge11" class="edge"><title>9&#45;&gt;11</title>
<path fill="none" stroke="black" d="M563.991,-222.907C577.513,-211.101 592.269,-198.217 605.746,-186.45"/>
<polygon fill="black" stroke="black" points="608.283,-188.881 613.514,-179.667 603.679,-183.608 608.283,-188.881"/>
</g>
<!-- 13 -->
<g id="node14" class="node"><title>13</title>
<path fill="#8139e5" stroke="black" d="M760,-298.5C760,-298.5 671,-298.5 671,-298.5 665,-298.5 659,-292.5 659,-286.5 659,-286.5 659,-242.5 659,-242.5 659,-236.5 665,-230.5 671,-230.5 671,-230.5 760,-230.5 760,-230.5 766,-230.5 772,-236.5 772,-242.5 772,-242.5 772,-286.5 772,-286.5 772,-292.5 766,-298.5 760,-298.5"/>
<text text-anchor="middle" x="715.5" y="-283.3" font-family="Helvetica,sans-Serif" font-size="14.00">entropy = 0.0</text>
<text text-anchor="middle" x="715.5" y="-268.3" font-family="Helvetica,sans-Serif" font-size="14.00">samples = 5</text>
<text text-anchor="middle" x="715.5" y="-253.3" font-family="Helvetica,sans-Serif" font-size="14.00">value = [0, 0, 5]</text>
<text text-anchor="middle" x="715.5" y="-238.3" font-family="Helvetica,sans-Serif" font-size="14.00">class = 橙汁</text>
</g>
<!-- 12&#45;&gt;13 -->
<g id="edge13" class="edge"><title>12&#45;&gt;13</title>
<path fill="none" stroke="black" d="M727.255,-341.907C725.608,-331.204 723.825,-319.615 722.158,-308.776"/>
<polygon fill="black" stroke="black" points="725.583,-308.018 720.603,-298.667 718.664,-309.083 725.583,-308.018"/>
</g>
<!-- 14 -->
<g id="node15" class="node"><title>14</title>
<path fill="#e68743" stroke="black" d="M929,-306C929,-306 802,-306 802,-306 796,-306 790,-300 790,-294 790,-294 790,-235 790,-235 790,-229 796,-223 802,-223 802,-223 929,-223 929,-223 935,-223 941,-229 941,-235 941,-235 941,-294 941,-294 941,-300 935,-306 929,-306"/>
<text text-anchor="middle" x="865.5" y="-290.8" font-family="Helvetica,sans-Serif" font-size="14.00">magnesium &lt;= 133.0</text>
<text text-anchor="middle" x="865.5" y="-275.8" font-family="Helvetica,sans-Serif" font-size="14.00">entropy = 0.276</text>
<text text-anchor="middle" x="865.5" y="-260.8" font-family="Helvetica,sans-Serif" font-size="14.00">samples = 42</text>
<text text-anchor="middle" x="865.5" y="-245.8" font-family="Helvetica,sans-Serif" font-size="14.00">value = [40, 2, 0]</text>
<text text-anchor="middle" x="865.5" y="-230.8" font-family="Helvetica,sans-Serif" font-size="14.00">class = 可乐</text>
</g>
<!-- 12&#45;&gt;14 -->
<g id="edge14" class="edge"><title>12&#45;&gt;14</title>
<path fill="none" stroke="black" d="M779.297,-341.907C789.842,-332.56 801.15,-322.538 811.991,-312.929"/>
<polygon fill="black" stroke="black" points="814.622,-315.273 819.784,-306.021 809.979,-310.035 814.622,-315.273"/>
</g>
<!-- 15 -->
<g id="node16" class="node"><title>15</title>
<path fill="#e58139" stroke="black" d="M877,-179.5C877,-179.5 780,-179.5 780,-179.5 774,-179.5 768,-173.5 768,-167.5 768,-167.5 768,-123.5 768,-123.5 768,-117.5 774,-111.5 780,-111.5 780,-111.5 877,-111.5 877,-111.5 883,-111.5 889,-117.5 889,-123.5 889,-123.5 889,-167.5 889,-167.5 889,-173.5 883,-179.5 877,-179.5"/>
<text text-anchor="middle" x="828.5" y="-164.3" font-family="Helvetica,sans-Serif" font-size="14.00">entropy = 0.0</text>
<text text-anchor="middle" x="828.5" y="-149.3" font-family="Helvetica,sans-Serif" font-size="14.00">samples = 40</text>
<text text-anchor="middle" x="828.5" y="-134.3" font-family="Helvetica,sans-Serif" font-size="14.00">value = [40, 0, 0]</text>
<text text-anchor="middle" x="828.5" y="-119.3" font-family="Helvetica,sans-Serif" font-size="14.00">class = 可乐</text>
</g>
<!-- 14&#45;&gt;15 -->
<g id="edge15" class="edge"><title>14&#45;&gt;15</title>
<path fill="none" stroke="black" d="M852.663,-222.907C849.243,-212.094 845.538,-200.376 842.08,-189.441"/>
<polygon fill="black" stroke="black" points="845.341,-188.146 838.989,-179.667 838.667,-190.257 845.341,-188.146"/>
</g>
<!-- 16 -->
<g id="node17" class="node"><title>16</title>
<path fill="#39e581" stroke="black" d="M1008,-179.5C1008,-179.5 919,-179.5 919,-179.5 913,-179.5 907,-173.5 907,-167.5 907,-167.5 907,-123.5 907,-123.5 907,-117.5 913,-111.5 919,-111.5 919,-111.5 1008,-111.5 1008,-111.5 1014,-111.5 1020,-117.5 1020,-123.5 1020,-123.5 1020,-167.5 1020,-167.5 1020,-173.5 1014,-179.5 1008,-179.5"/>
<text text-anchor="middle" x="963.5" y="-164.3" font-family="Helvetica,sans-Serif" font-size="14.00">entropy = 0.0</text>
<text text-anchor="middle" x="963.5" y="-149.3" font-family="Helvetica,sans-Serif" font-size="14.00">samples = 2</text>
<text text-anchor="middle" x="963.5" y="-134.3" font-family="Helvetica,sans-Serif" font-size="14.00">value = [0, 2, 0]</text>
<text text-anchor="middle" x="963.5" y="-119.3" font-family="Helvetica,sans-Serif" font-size="14.00">class = 雪碧</text>
</g>
<!-- 14&#45;&gt;16 -->
<g id="edge16" class="edge"><title>14&#45;&gt;16</title>
<path fill="none" stroke="black" d="M899.501,-222.907C909.113,-211.432 919.577,-198.938 929.207,-187.442"/>
<polygon fill="black" stroke="black" points="931.981,-189.58 935.719,-179.667 926.615,-185.086 931.981,-189.58"/>
</g>
</g>
</svg>
